Coordinates
nRows=8
nColumns=24

# SIMM Motion File Header:
name Coordinates
datacolumns 24
datarows 8
otherdata 1
range 0.79132999999999998000 0.79832999999999998000
endheader
time	pelvis_tx	pelvis_ty	pelvis_tz	pelvis_tilt	pelvis_list	pelvis_rotation	hip_flexion_r	hip_adduction_r	hip_rotation_r	knee_angle_r	ankle_angle_r	subtalar_angle_r	mtp_angle_r	hip_flexion_l	hip_adduction_l	hip_rotation_l	knee_angle_l	ankle_angle_l	subtalar_angle_l	mtp_angle_l	lumbar_extension	lumbar_bending	lumbar_rotation
      0.79132999999999998000	      1.15238920894485220000	      0.94096221382547862000	     -0.20392198772108303000	      0.20969692743842080000	      7.44843971328043520000	     -3.25212083228493180000	    -11.54599105272134500000	     -7.41246385445290470000	      8.61878291750105240000	    -21.04132678640657200000	      8.12477912586598980000	      0.00000000000011546544	      0.00000000000003028919	     14.01283046280534500000	      9.19109355973733070000	      5.55558052455094130000	     -2.25192065659041020000	     -9.63621575643590770000	      0.00000000000003881047	     -0.00000000000004239289	     -1.42285277866999890000	     -7.58855487896207140000	      7.69047356621147400000
      0.79232999999999998000	      1.15327916645182250000	      0.94110570652171055000	     -0.20408159356352853000	      0.20386320141036368000	      7.46214786727543620000	     -3.24976746878961280000	    -11.47904729641576300000	     -7.45577812807633490000	      8.54824520631134280000	    -21.22452162229868500000	      7.90356203840949160000	      0.00000000000011593083	      0.00000000000002938516	     13.95695223969612400000	      9.22132899725988330000	      5.62597732457367170000	     -2.24550554779137990000	     -9.57809133579484670000	      0.00000000000003901578	     -0.00000000000004304269	     -1.40417426076459640000	     -7.60340141025310510000	      7.67968546293950640000
      0.79332999999999998000	      1.15416869188604740000	      0.94124836252496846000	     -0.20424126504530832000	      0.19760958832503148000	      7.47543569041693260000	     -3.24736935863832650000	    -11.41090634921961400000	     -7.49877251073337000000	      8.47733055407922190000	    -21.40866235256672200000	      7.67964332225750820000	      0.00000000000011639229	      0.00000000000002848817	     13.90165816116335400000	      9.25108316102024550000	      5.69509237736861260000	     -2.23965194934854760000	     -9.51910470290629720000	      0.00000000000003921984	     -0.00000000000004369779	     -1.38505121544834250000	     -7.61774718427818250000	      7.66898174058077050000
      0.79432999999999998000	      1.15505661030573800000	      0.94138792924948733000	     -0.20440102457927137000	      0.18992322672640130000	      7.48744363811147730000	     -3.24486444547701150000	    -11.33872922831150700000	     -7.54086717339970210000	      8.40518454783277310000	    -21.59581084205736400000	      7.44576368717931380000	      0.00000000000011684621	      0.00000000000002758705	     13.84845703126836700000	      9.27936353901472980000	      5.75962093075011690000	     -2.23594147182802460000	     -9.45549769589133500000	      0.00000000000003947708	     -0.00000000000004437832	     -1.36441393182730870000	     -7.63058704863333230000	      7.65861757035287740000
      0.79532999999999998000	      1.15594429915192350000	      0.94152705464847197000	     -0.20456079669211774000	      0.18203218676872787000	      7.49926874645645650000	     -3.24234427474283530000	    -11.26597551115883200000	     -7.58283330463879060000	      8.33286263386999340000	    -21.78338901143695600000	      7.21046106368308330000	      0.00000000000011729904	      0.00000000000002668534	     13.79555489403592200000	      9.30743337618551970000	      5.82349426992970010000	     -2.23253715443926160000	     -9.39123063542974100000	      0.00000000000003974191	     -0.00000000000004506247	     -1.34356032844844850000	     -7.64321178303563450000	      7.64830190757224760000
      0.79632999999999998000	      1.15683083787750780000	      0.94166406686480109000	     -0.20472035478395953000	      0.17324625016960404000	      7.51032777776415910000	     -3.23989100366734870000	    -11.19060109469785200000	     -7.62430491039261240000	      8.25992496340107780000	    -21.97289316026249800000	      6.96859789578556210000	      0.00000000000011775628	      0.00000000000002575446	     13.74396233760748800000	      9.33457169031995270000	      5.88402113795518920000	     -2.23040319880794960000	     -9.32396611227283860000	      0.00000000000004002132	     -0.00000000000004574841	     -1.32175553617150210000	     -7.65495538713883410000	      7.63834184891110900000
      0.79732999999999998000	      1.15771622648249100000	      0.94179896589847467000	     -0.20487969885479676000	      0.16356541692902921000	      7.52062073203458410000	     -3.23750463225055190000	    -11.11260597892856500000	     -7.66528199066116840000	      8.18637153642602830000	    -22.16432328853399300000	      6.72017418348674590000	      0.00000000000011821791	      0.00000000000002479440	     13.69367936198306900000	      9.36077848141802880000	      5.94120153482658250000	     -2.22953960493408990000	     -9.25370412642062590000	      0.00000000000004031530	     -0.00000000000004643613	     -1.29899955499646900000	     -7.66581786094292990000	      7.62873739436946070000
      0.79832999999999998000	      1.15860161508747410000	      0.94193386493214815000	     -0.20503904292563399000	      0.15388458368845423000	      7.53091368630500920000	     -3.23511826083375540000	    -11.03461086315927600000	     -7.70625907092972450000	      8.11281810945097880000	    -22.35575341680548800000	      6.47175047118792790000	      0.00000000000011867954	      0.00000000000002383434	     13.64339638635864700000	      9.38698527251610670000	      5.99838193169797410000	     -2.22867601106022970000	     -9.18344214056841320000	      0.00000000000004060927	     -0.00000000000004712385	     -1.27624357382143570000	     -7.67668033474702490000	      7.61913293982781250000
